<svg xmlns="http://www.w3.org/2000/svg" width="166.74" height="36.93" overflow="visible"><style>.st0{fill:#fff}</style><path class="st0" d="M116.14 1.56c0 .86-.7 1.56-1.56 1.56s-1.56-.7-1.56-1.56c0-.86.7-1.56 1.56-1.56s1.56.7 1.56 1.56M20.75 5.85c0 .93-.76 1.69-1.69 1.69s-1.69-.76-1.69-1.69c0-.93.76-1.69 1.69-1.69s1.69.75 1.69 1.69M31.75 34.1c0 .93-.76 1.69-1.69 1.69s-1.69-.76-1.69-1.69c0-.93.76-1.69 1.69-1.69s1.69.75 1.69 1.69M67.32 10.37c-1.97-.57-3.37-1.05-3.37-2.15v-.04c0-1.1 1.06-1.87 2.57-1.87 1.25 0 2.61.44 3.83 1.25l.31.21c.04.02.08.01.1-.02l1.07-1.68c.02-.03.01-.08-.02-.1l-.3-.2c-1.41-.94-3.31-1.53-4.94-1.53-2.78 0-4.8 1.73-4.8 4.1v.05c0 2.65 2.64 3.42 4.75 4.03l.11.03c2.06.58 3.18 1.11 3.18 2.22v.05c0 1.22-1.13 2.08-2.75 2.08-1.55 0-3.06-.55-4.48-1.65l-.3-.23c-.03-.03-.08-.02-.1.01L61 16.53c-.02.03-.02.08.01.1l.27.22c1.53 1.25 3.71 2.02 5.7 2.02 2.9 0 5.01-1.81 5.01-4.31v-.05c.01-2.82-2.92-3.65-4.67-4.14M74.12 4.49h-1.26c-.04 0-.07.03-.07.07v1.9c0 .04.03.07.07.07h1.26v8.23c0 2.51 1.59 4.08 4.15 4.08.86 0 1.58-.16 2.34-.51l.26-.12v-1.96c0-.09-.1-.15-.18-.12l-.44.2c-.7.31-1.18.43-1.77.43-1.51 0-2.21-.68-2.21-2.13v-8.1h4.57c.04 0 .07-.03.07-.07v-1.9c0-.04-.03-.07-.07-.07h-4.57V.34c0-.04-.03-.07-.07-.07h-2.01c-.04 0-.07.03-.07.07v4.15zM92.7 12.59c0 2.48-1.75 4.28-4.15 4.28-2.36 0-3.76-1.52-3.76-4.08V4.56c0-.04-.03-.07-.07-.07h-2.01c-.04 0-.08.03-.08.07v8.47c0 3.52 2.31 5.89 5.74 5.89 1.77 0 3.24-.63 4.34-1.85v.62c0 .6.48 1.08 1.08 1.08.59 0 1.08-.48 1.08-1.08V4.56c0-.04-.03-.07-.07-.07h-2.01c-.04 0-.07.03-.07.07v8.03zM108.42 11.58c0 3.24-2.57 5.24-4.96 5.24-2.71 0-4.75-2.27-4.75-5.27v-.05c0-3.12 1.91-5.22 4.75-5.22 3.06 0 4.96 2.72 4.96 5.24v.06zm-.08-5.1c-1.35-1.53-3.03-2.3-5.01-2.3-3.38 0-6.88 2.76-6.88 7.37v.05c0 4.58 3.5 7.32 6.88 7.32 1.95 0 3.63-.8 5.01-2.39v1.21c0 .6.48 1.08 1.08 1.08.6 0 1.08-.48 1.08-1.08V.34c0-.04-.03-.07-.07-.07h-2.01c-.04 0-.07.03-.07.07v6.14zM114.5 18.81c.59 0 1.08-.48 1.08-1.08V5.3c0-.04-.03-.08-.07-.08h-2.01c-.04 0-.07.03-.07.08v12.44c-.01.59.47 1.07 1.07 1.07M129.82 11.6c0 2.99-2.13 5.24-4.96 5.24-2.81 0-5.01-2.33-5.01-5.29v-.05c0-2.99 2.13-5.24 4.96-5.24 2.81 0 5.01 2.33 5.01 5.3v.04zm-4.96-7.42c-4.08 0-7.27 3.24-7.27 7.37v.05c0 4.1 3.17 7.32 7.22 7.32 4.08 0 7.27-3.24 7.27-7.37v-.05c0-4.11-3.17-7.32-7.22-7.32M63.99 35.65h-1.27c-.41 0-.74-.33-.74-.74V21.67c0-.41.33-.74.74-.74h1.27c.41 0 .74.33.74.74v1.29c1.35-1.48 3.21-2.32 5.16-2.24.39.02.71.34.71.73v1.4c0 .41-.33.74-.74.74h-.13c-2.49 0-5 1.82-5 5.88v5.42c0 .43-.33.76-.74.76M73.62 26.93h7.95c-.35-1.89-1.51-3.67-3.92-3.67-1.96.01-3.56 1.51-4.03 3.67m4.3 9.03c-4.12 0-7.23-3.28-7.23-7.64v-.05c0-4.28 3.08-7.64 7.02-7.64 4.01 0 6.81 3.15 6.81 7.67v.05c0 .19 0 .3-.03.56-.05.37-.36.64-.73.64H73.61c.51 2.57 2.54 3.75 4.35 3.75 1.56 0 2.83-.59 4.01-1.84.27-.29.73-.31 1.03-.05l.88.78c.15.13.24.32.25.52.01.2-.06.39-.19.54-1.19 1.25-2.94 2.71-6.02 2.71M91.65 35.91c-2.05 0-4.31-.8-5.89-2.09a.737.737 0 01-.13-1.01l.75-1.01c.12-.16.29-.26.49-.29.19-.03.39.02.55.14 1.37 1.05 2.82 1.59 4.3 1.59 1.18 0 2.46-.56 2.46-1.78v-.05c0-.93-1-1.38-2.97-1.94l-.11-.03c-2.21-.64-4.96-1.43-4.96-4.31v-.05c0-2.55 2.14-4.4 5.1-4.4 1.69 0 3.65.6 5.11 1.58.33.22.43.67.21 1.01l-.67 1.07c-.11.17-.27.28-.47.33s-.4 0-.56-.11c-1.17-.78-2.48-1.2-3.67-1.2-1.36 0-2.28.63-2.28 1.57v.05c0 .89 1.31 1.33 3.15 1.86 1.83.51 4.89 1.37 4.89 4.42v.05c0 2.66-2.23 4.6-5.3 4.6M105.71 23.29c-2.66 0-4.66 2.13-4.66 4.95v.05c0 2.8 2.07 5 4.72 5 2.66 0 4.66-2.13 4.66-4.95v-.05c0-2.8-2.08-5-4.72-5m0 12.67c-4.21 0-7.51-3.34-7.51-7.61v-.05c0-4.3 3.32-7.67 7.56-7.67 4.21 0 7.51 3.35 7.51 7.61v.05c0 4.3-3.32 7.67-7.56 7.67M126.81 35.65h-1.27c-.41 0-.74-.33-.74-.74v-7.87c0-2.4-1.26-3.78-3.47-3.78-2.24 0-3.86 1.68-3.86 3.99v7.66c0 .41-.33.74-.73.74h-1.27c-.41 0-.74-.33-.74-.74V21.67c0-.41.33-.74.74-.74h1.27c.41 0 .73.33.73.74v.39c1.08-.94 2.45-1.43 4.04-1.43 3.61 0 6.03 2.49 6.03 6.19v8.1c0 .4-.33.73-.73.73M149.13 35.88c-2.74 0-4.45-1.67-4.45-4.37v-7.93h-1.18c-.41 0-.74-.33-.74-.74v-1.17c0-.41.33-.74.74-.74h1.18v-3.49c0-.41.33-.74.74-.74h1.27c.41 0 .74.33.74.74v3.49h3.91c.41 0 .73.33.73.74v1.17c0 .41-.33.74-.73.74h-3.91v7.8c0 1.29.57 1.83 1.91 1.83.54 0 .99-.11 1.65-.4.23-.1.49-.08.7.05.21.14.34.37.34.62v1.19c0 .29-.17.55-.43.67-.8.38-1.56.54-2.47.54M135.57 28.59c-2.27 0-3.62.88-3.62 2.35v.05c0 1.51 1.56 2.3 3.11 2.3 2.44 0 4.28-1.44 4.28-3.34v-.93c-.99-.22-2.24-.43-3.77-.43m-.59 7.37c-2.84 0-5.85-1.71-5.85-4.89v-.05c0-3.07 2.56-5.04 6.53-5.04 1.53 0 2.67.16 3.64.37-.13-1.96-1.34-2.95-3.61-2.95-1.31 0-2.49.3-3.82.98-.18.09-.4.11-.59.04a.753.753 0 01-.43-.41l-.47-1.12c-.15-.36.01-.78.37-.95 1.29-.6 2.89-1.21 5.01-1.21 3.92 0 6.27 2.22 6.27 5.93v8.25c0 .41-.33.74-.74.74h-1.25c-.41 0-.74-.33-.74-.74v-.38c-.97.76-2.37 1.43-4.32 1.43M155.3 26.93h7.95c-.35-1.89-1.51-3.67-3.92-3.67-1.97.01-3.57 1.51-4.03 3.67m4.29 9.03c-4.12 0-7.23-3.28-7.23-7.64v-.05c0-4.28 3.08-7.64 7.02-7.64 4.01 0 6.81 3.15 6.81 7.67v.05c0 .19 0 .3-.03.56-.05.37-.36.64-.73.64h-10.14c.51 2.57 2.54 3.75 4.35 3.75 1.56 0 2.83-.59 4.01-1.84.27-.29.73-.31 1.03-.05l.88.78c.15.13.24.32.25.52.01.2-.06.39-.19.54-1.19 1.25-2.94 2.71-6.03 2.71M46.47 22.65c-.54 0-1.05-.31-1.29-.83-.33-.71-.02-1.56.69-1.89 2.91-1.35 4.16-3.22 4.16-6.24 0-4.01-3.58-6.41-7.05-6.41H29.79c-.79 0-1.42-.64-1.42-1.43s.64-1.42 1.42-1.42h13.18c5.55 0 9.9 4.07 9.9 9.26 0 4.13-1.9 7.02-5.81 8.83-.18.09-.39.13-.59.13M15.52 16.16c-2.7-.8-4.33-1.36-4.33-2.38 0-.31.17-.52.29-.63a.7.7 0 01.1-.08c.01 0 .01-.01.02-.01l-.01.01.19-.14c.59-.5.56-1.21.42-1.58-.15-.39-.52-.82-1.15-.91-.7-.1-1.2.38-1.2.38-.66.5-1.5 1.52-1.5 2.97 0 3.22 3.24 4.18 6.37 5.11 4.76 1.41 8.12 2.78 8.12 7.63 0 4.02-3.59 6.41-7.05 6.41H4.15c-.79 0-1.43.64-1.43 1.42 0 .79.64 1.43 1.43 1.43h11.64c5.55 0 9.9-4.07 9.9-9.27 0-7.35-6.12-9.16-10.17-10.36"/><path class="st0" d="M17.35 26.4c0-3.22-3.24-4.18-6.37-5.11-4.76-1.41-8.12-2.78-8.12-7.63 0-4.02 3.58-6.41 7.05-6.41h3.72c.79 0 1.43-.64 1.43-1.42 0-.79-.64-1.43-1.43-1.43H9.9C4.35 4.39 0 8.46 0 13.66c0 7.35 6.12 9.16 10.16 10.36 2.7.8 4.33 1.36 4.33 2.38 0 .31-.17.52-.29.63-.03.03-.06.05-.09.08-.01 0-.01.01-.02.01l.01-.01-.19.14c-.59.51-.56 1.21-.42 1.58.15.39.52.82 1.15.91.7.1 1.2-.38 1.2-.38.67-.49 1.51-1.5 1.51-2.96M51.49 35.06c-.59.52-1.49.47-2.01-.12L31.94 15.16a1.424 1.424 0 112.13-1.89L51.6 33.05c.53.59.48 1.49-.11 2.01M40.04 29.38c-.59.52-1.49.47-2.01-.12L23.25 12.61a1.424 1.424 0 112.13-1.89l14.77 16.65c.53.59.47 1.49-.11 2.01M38.67 35.18c-.59.52-1.49.47-2.01-.12l-7.91-8.92a1.424 1.424 0 112.13-1.89l7.91 8.92c.53.59.47 1.49-.12 2.01"/><path d="M166.12 36.31h0" fill="#fff" stroke="#808291" stroke-width="1.25" stroke-linecap="round" stroke-linejoin="round"/></svg>