<svg xmlns="http://www.w3.org/2000/svg" xmlns:xlink="http://www.w3.org/1999/xlink" viewBox="0 0 220.7 25"><defs><path id="a" d="M.4 15.1L0 18.3l.4 3.2c0 .2.2.2.2.2.2 0 .2-.2.2-.2l.5-3.2-.5-3.2c0-.2-.2-.2-.2-.2s-.2 0-.2.2m2.1-2L2 18.3l.5 5.1c0 .2.2.2.2.2.2 0 .2-.2.2-.2l.7-5.1-.7-5.1c0-.2-.2-.2-.2-.2l-.2.1m6.7-.7l-.4 5.9.4 6.2c0 .2.2.4.4.4s.4-.2.4-.4l.7-6.2-.5-5.9c0-.2-.2-.4-.4-.4-.4.1-.6.2-.6.4m-4.4-.3l-.5 6.2.5 5.9c0 .2.2.4.4.4 0 0 .2-.2.2-.4l.5-5.9-.5-6.2c0-.2-.2-.4-.4-.4 0 .2-.2.2-.2.4m2.1-.2l-.5 6.4.5 6c0 .2.2.4.4.4s.4-.2.4-.4l.5-6-.5-6.4c0-.2-.2-.4-.4-.4s-.2.2-.4.4m4.6-3.2l-.5 9.6.5 6.2c0 .2.2.4.4.4.4 0 .5-.2.5-.4l.5-6.2-.5-9.6c0-.2-.2-.4-.4-.4-.3 0-.5.2-.5.4m2.3-2.1l-.4 11.7.4 6.2c0 .4.2.5.5.5.2 0 .5-.2.5-.5l.5-6.2-.4-11.7c0-.4-.2-.5-.5-.5s-.6.1-.6.5m109.4-.7v10.2c-.2-.4-.7-1.2-1.1-1.8l-5.7-8.5h-3V22h3.2V11.4c.2.4.7 1.2 1.1 1.8l5.9 8.9h2.8V5.9h-3.2zM133.9 9h1.8c3.4 0 4.8 1.6 4.8 5 0 3-1.6 5-5 5h-1.6V9zm-3.2 13h4.8c4.1 0 8.3-2.3 8.3-8 0-5.9-3.4-8-8-8h-5.1v-.1V22zm31.7-16.1V22h9.8v-3.2h-6.4V5.9h-3.4zM211 9h1.8c3.4 0 4.8 1.6 4.8 5 0 3-1.6 5-5 5H211V9zm-3.2 13h4.8c3.5 0 7.3-1.8 8.2-6v-4.1C220 7.6 217 6 212.9 6h-5.1v-.1V22zM64.7 10.5c0 3.2 2.1 4.1 5 4.8 3 .7 3.5 1.1 3.5 2.1 0 1.2-.9 1.8-2.8 1.8-1.6 0-3-.5-4.1-1.8L64 19.5c1.2 1.8 3.5 3 6.2 3 4.4 0 6.4-2.1 6.4-5.1 0-3.5-2.8-4.4-5.3-5s-3.2-.9-3.2-2c0-.7.5-1.4 2.3-1.4 1.4 0 2.7.5 3.7 1.6l2.3-2.3c-1.6-1.6-3.4-2.5-5.9-2.5H70c-3 .1-5.3 1.8-5.3 4.7M82.4 14c0-2.8 1.1-5.1 3.7-5.1 2.7 0 3.7 2.3 3.7 5.1s-1.1 5.1-3.7 5.1-3.7-2.3-3.7-5.1m-3.3 0c0 5 2.7 8.3 6.9 8.3 4.4 0 7.1-3.4 7.1-8.3S90.4 5.7 86 5.7c-4.3 0-6.9 3.3-6.9 8.3m27.1-8.3v9.2c0 2.7-1.2 4.3-3.4 4.3s-3.4-1.6-3.4-4.3v-9h-3.2v9c0 4.6 2.7 7.3 6.6 7.3 4.1 0 6.6-2.7 6.6-7.4v-9h-3.2zm40.3 8.3c0 5.1 2.8 8.3 7.1 8.3 3 0 4.8-1.4 6-3.7l-2.7-1.6c-.9 1.4-1.8 2.1-3.2 2.1-2.5 0-3.9-2.1-3.9-5.1s1.4-5.1 3.7-5.1c1.4 0 2.3.7 3 1.8l3-1.4c-1.1-2.1-2.8-3.5-5.9-3.5-4.1-.1-7.1 3.2-7.1 8.2m30.5 0c0-2.8 1.1-5.1 3.7-5.1s3.7 2.3 3.7 5.1-1.1 5.1-3.7 5.1-3.7-2.3-3.7-5.1m-3.4 0c0 5 2.7 8.3 6.9 8.3 4.4 0 6.9-3.4 6.9-8.3s-2.7-8.3-6.9-8.3c-4.3 0-6.9 3.3-6.9 8.3m26.9-8.3v9.2c0 2.7-1.2 4.3-3.4 4.3s-3.4-1.6-3.4-4.3v-9h-3.2v9c0 4.6 2.7 7.3 6.6 7.3 4.1 0 6.6-2.7 6.6-7.4v-9h-3.2zM23.2 6l-.4 12.2.4 5.9c0 .4.4.7.7.7.4 0 .7-.4.7-.7l.4-5.9-.4-12.3c0-.4-.4-.7-.7-.7-.5.1-.7.3-.7.8m-7.1-.5l-.4 12.8.4 6c0 .4.2.5.5.5.4 0 .5-.2.5-.5l.4-6-.3-12.8c0-.4-.2-.5-.5-.5-.4 0-.6.3-.6.5m4.6 0l-.4 12.8.4 6c0 .4.4.7.7.7.4 0 .7-.4.7-.7l.4-6-.3-12.8c0-.4-.4-.7-.7-.7-.4 0-.8.3-.8.7m-2.3-.4L18 18.2l.4 6c0 .4.2.5.5.5.4 0 .5-.2.5-.5l.4-6-.3-13.1c0-.4-.4-.5-.5-.5-.2 0-.6.2-.6.5m7.1-1.6l-.4 14.7.4 5.9c0 .4.4.7.7.7s.7-.4.7-.7l.4-5.9L27 3.5c0-.4-.4-.7-.7-.7-.4 0-.8.4-.8.7M28 2.3l-.4 16 .4 5.9c0 .4.4.7.7.7.4 0 .7-.4.7-.7l.4-5.9-.4-16c0-.4-.4-.7-.7-.7h-.2c-.3 0-.5.4-.5.7M30.9.7c-.5.2-.7.4-.7.9v22.5c0 .4.4.7.7.9h19.7c3.9 0 7.1-3.2 7.1-7.1s-3.2-7.1-7.1-7.1c-.9 0-2 .2-2.7.5C47.3 5 42 0 35.5 0h-.9c-1.3 0-2.5.4-3.7.7"/></defs><use xlink:href="#a" overflow="visible"/><clipPath id="b"><use xlink:href="#a" overflow="visible"/></clipPath><path clip-path="url(#b)" d="M0 0h220.7v25H0z"/></svg>