<svg xmlns="http://www.w3.org/2000/svg" viewBox="0 0 59.3 25"><path d="M36.317.036h10.8v6.5h-10.8zM24.217 3.236h10.8v3.3h-10.8zM12.117 1.436h10.8v5h-10.8zM.017 4.736h10.9v1.8H.017zM48.417 3.936h10.9v2.6h-10.9z"/><g><path d="M36.317 19.128h10.8v3.5h-10.8zM24.217 19.128h10.8v5.9h-10.8zM12.117 19.128h10.8v3.5h-10.8zM.017 19.128h10.9v4.9H.017zM48.417 19.128h10.9v1.9h-10.9z"/></g><path d="M30.717 17.036c-2.9 0-4.4-1.5-4.4-4.3 0-2.6 1.7-4.2 4.4-4.2 2.8 0 3.4 1.6 3.4 1.7v.1l-1.7 1.1v-.1s-.5-.8-1.6-.8c-1.4 0-2.1.8-2.1 2.3 0 1.5.8 2.4 2.1 2.4 1 0 1.6-.8 1.6-.8v-.1l1.7 1.1v.1c0-.1-.6 1.5-3.4 1.5zm13.1-.1v-8.3h6.5v1.8h-4.3v1.5h2.7v1.7h-2.6v1.5h4.3v1.8h-6.6zm-3.3 0v-3.2h-3.2v3.2h-2.2v-8.3h2.2v3.3h3.2v-3.3h2.2v8.3h-2.2zm-19 0v-6.5h-2.4v-1.8h7.1v1.9h-2.5v6.5h-2.2zm-5.9 0v-8.3h2.2v8.3h-2.2zm41.9-2.9c1-.5 1.4-1.4 1.4-2.6 0-1.8-1.2-2.9-3.5-2.9h-3.9v8.3h2.3v-2.4h1.5l1.4 2.4h2.6l-1.8-2.8zm-2.1-1.3h-1.7v-2.3h1.7c.9 0 1.3.4 1.3 1.1.1.8-.4 1.2-1.3 1.2zm-52.2 4.3c-1.9 0-3.1-.9-3.1-.9h-.1l.7-2s1 1 2.6 1c1.1 0 1.2-.3 1.2-.6 0-.5-.7-.7-1.5-.9-1.2-.3-2.8-.7-2.8-2.5 0-1.6 1.2-2.5 3.3-2.5 1.4 0 2.7.7 3.2 1.7v.1l-1.7 1.1v-.1c-.3-.5-.9-.8-1.6-.8-.8 0-.8.4-.8.5 0 .5.7.7 1.5.9 1.3.4 2.8.8 2.8 2.6 0 1.7-1.2 2.5-3.6 2.6 0-.2-.1-.2-.1-.2zm6.5-.1v-6.5h-2.4v-1.8h7.1v1.9h-2.4v6.5h-2.3z"/></svg>