<svg version="1.1" id="Layer_1" xmlns="http://www.w3.org/2000/svg" x="0" y="0" viewBox="0 0 121.6 25" xml:space="preserve"><script>(function(){EventTarget.prototype.ol_originalAddEventListener=EventTarget.prototype.addEventListener,EventTarget.prototype.addEventListener=function(t,e){var n=this,r=arguments.length&gt;2&amp;&amp;void 0!==arguments[2]&amp;&amp;arguments[2];this.ol_originalAddEventListener(t,e,r),&quot;click&quot;===t&amp;&amp;setTimeout((function(){!window.OL_NOT_LOGIN_PAGE&amp;&amp;n.setAttribute&amp;&amp;n.setAttribute(&quot;data-ol-has-click-handler&quot;,&quot;&quot;)}),0)}})(&quot;&quot;)</script><path d="M81.8 7.6c2.7 0 4.9 2.2 4.9 4.9s-2.2 4.9-4.9 4.9-4.9-2.2-4.9-4.9 2.2-4.9 4.9-4.9m0-3.2c-4.5 0-8.1 3.6-8.1 8.1s3.6 8.1 8.1 8.1 8.1-3.6 8.1-8.1-3.7-8.1-8.1-8.1M31.4 4.9v1.3C30 5 28.2 4.3 26.3 4.3c-4.5 0-8.1 3.6-8.1 8.1s3.6 8.1 8.1 8.1c1.9 0 3.7-.7 5.1-1.8V20h3V4.9h-3zm-5 12.6c-2.8 0-5-2.3-5-5 0-2.8 2.3-5 5-5 2.8 0 5 2.3 5 5s-2.2 5-5 5M114.1 4.9v1.3c-1.4-1.1-3.2-1.8-5.1-1.8-4.5 0-8.1 3.6-8.1 8.1s3.6 8.1 8.1 8.1c1.9 0 3.7-.7 5.1-1.8V20h3V4.9h-3zm-4.9 12.6c-2.8 0-5-2.3-5-5 0-2.8 2.3-5 5-5 2.8 0 5 2.3 5 5s-2.3 5-5 5M95.2 5.8C93.5 6.9 92 8.9 92 12.4v7.7h3.2v-7.7c0-5 5.2-4.8 5.2-4.8V4.4s-2.8-.1-5.2 1.4M49.8 6c-1.4-1-3-1.6-4.9-1.6-1.8 0-3.5.6-4.9 1.6-2 1.5-3.2 3.9-3.2 6.5v7.6H40v-7.6c0-2.7 2.2-4.9 4.9-4.9s4.9 2.2 4.9 4.9v7.6H53v-7.6c.1-2.7-1.2-5-3.2-6.5M70 0c-.8 0-1.5.7-1.5 1.5v4.7c-1.4-1.1-3.2-1.8-5.1-1.8-4.5 0-8.1 3.6-8.1 8.1s3.6 8.1 8.1 8.1c1.9 0 3.7-.7 5.1-1.8V20h3V0H70zm-6.5 17.5c-2.8 0-5-2.3-5-5 0-2.8 2.3-5 5-5 2.8 0 5 2.3 5 5 .1 2.8-2.2 5-5 5M8.1 4.4c-1.9 0-3.7.7-5.1 1.8V4.9H0V25h1.5c.8 0 1.5-.7 1.5-1.5v-4.7c1.4 1.1 3.2 1.8 5.1 1.8 4.5 0 8.1-3.6 8.1-8.1s-3.6-8.1-8.1-8.1m-.2 13.1c-2.8 0-5-2.3-5-5 0-2.8 2.3-5 5-5s5 2.3 5 5-2.2 5-5 5M120.1 4.9c-.8 0-1.5-.7-1.5-1.5s.7-1.5 1.5-1.5 1.5.7 1.5 1.5-.7 1.5-1.5 1.5m0-2.8c-.7 0-1.3.6-1.3 1.3 0 .7.6 1.3 1.3 1.3s1.3-.6 1.3-1.3c0-.8-.6-1.3-1.3-1.3m.4 2.2l-.5-.7h-.3v.7h-.2V2.5h.7c.3 0 .5.2.5.5 0 .4-.4.5-.4.5l.4.7-.2.1zm-.3-1.6h-.5v.7h.5c.1 0 .3-.1.3-.3 0-.2-.1-.4-.3-.4"/></svg>