<svg xmlns="http://www.w3.org/2000/svg" viewBox="0 0 116.5 25"><path d="M27.4 24.5l.4-.5c.3.2.6.4 1 .4.3 0 .5-.1.5-.3 0-.2-.1-.3-.7-.4-.7-.2-1.1-.4-1.1-1s.5-1 1.2-1c.5 0 .9.2 1.2.4l-.4.6c-.3-.2-.6-.3-.9-.3-.3 0-.4.1-.4.3 0 .2.1.3.7.4.7.2 1.1.4 1.1 1 0 .7-.5 1-1.2 1-.5-.1-1-.3-1.4-.6zm5.6-2.9h.7l1.4 3.4h-.8l-.3-.8h-1.4l-.3.8h-.8l1.5-3.4zm.8 1.9l-.4-1.1-.4 1.1h.8zm3.5-1.2h-1v-.7H39v.7h-1V25h-.7v-2.7zm3.5-.7h2.5v.7h-1.8v.7h1.6v.7h-1.6v.7h1.8v.7h-2.6l.1-3.5zm4.5 0h.7v2.7h1.7v.7h-2.4v-3.4zm4.2 0h.7v2.7h1.7v.7h-2.4v-3.4zm4.2 0h.7V25h-.7v-3.4zm3.6.7h-1v-.7h2.8v.7h-1V25h-.7l-.1-2.7zm3.6-.7h2.5v.7h-1.8v.7h1.6v.7h-1.6v.7h1.8v.7h-2.6v-3.5zm7.1 0h1.5c.4 0 .8.1 1 .3.2.2.3.5.3.8 0 .5-.3.9-.7 1l.8 1.2H70l-.7-1.1h-.6v1.1H68v-3.3zm1.5 1.6c.4 0 .6-.2.6-.5s-.2-.5-.6-.5h-.7v1h.7zm4.4-1.6h.7L76 25h-.8l-.3-.8h-1.4l-.3.8h-.8l1.5-3.4zm.8 1.9l-.4-1.1-.4 1.1h.8zm3.1-1.9h1.3c1.1 0 1.8.7 1.8 1.7 0 .9-.7 1.7-1.8 1.7h-1.3v-3.4zm1.3 2.7c.6 0 1-.4 1-1s-.4-1-1-1h-.6v2h.6zm3.7-2.7h.7V25h-.7v-3.4zm2.7 1.7c0-1 .8-1.7 1.8-1.7s1.8.8 1.8 1.7c0 1-.8 1.7-1.8 1.7-1.1 0-1.8-.8-1.8-1.7zm2.8 0c0-.6-.4-1.1-1-1.1s-1 .5-1 1c0 .6.4 1.1 1 1.1s1-.5 1-1zM111.4 1.7c1.9 2.8 2.9 6 2.9 9.4 0 3.4-1 6.6-2.9 9.4-.3.5-.2 1.1.3 1.5.5.3 1.1.2 1.5-.3 2.1-3.1 3.3-6.8 3.3-10.6s-1.1-7.5-3.3-10.6c-.3-.5-1-.6-1.5-.3s-.6 1-.3 1.5"/><path d="M108.1 19c.5.4 1.1.3 1.5-.2 1.7-2.2 2.6-4.9 2.6-7.7s-.9-5.5-2.6-7.8c-.3-.5-1-.6-1.5-.2s-.6 1-.2 1.5c1.4 1.9 2.2 4.1 2.2 6.5 0 2.3-.7 4.6-2.1 6.4-.5.5-.4 1.2.1 1.5"/><path d="M104.3 16.4c.5.4 1.1.3 1.5-.2 1.2-1.5 1.8-3.3 1.8-5.2 0-1.9-.6-3.7-1.8-5.1-.4-.5-1-.5-1.5-.2-.5.4-.5 1-.2 1.5.9 1.1 1.3 2.4 1.3 3.8s-.5 2.8-1.4 3.9c-.2.5-.2 1.1.3 1.5M5 20.4c-1.9-2.8-2.9-6-2.9-9.4 0-3.4 1-6.6 2.9-9.4.3-.5.2-1.1-.3-1.5S3.6 0 3.3.5C1.1 3.6 0 7.3 0 11c0 3.8 1.1 7.5 3.3 10.6.3.5 1 .6 1.5.3.4-.3.6-1 .2-1.5 0 0 .4.5 0 0 0 0 .4.5 0 0z"/><path d="M8.6 4.6c.4-.5.3-1.1-.2-1.5-.4-.3-1.1-.2-1.5.2-1.7 2.2-2.6 4.9-2.6 7.8 0 2.8.9 5.5 2.6 7.7.4.5 1 .6 1.5.2.5-.4.6-1 .2-1.5-1.4-1.9-2.1-4.1-2.1-6.4 0-2.4.7-4.6 2.1-6.5z"/><path d="M8.8 11c0 1.9.6 3.7 1.8 5.2.4.5 1 .5 1.5.2.5-.4.5-1 .2-1.5-.9-1.1-1.3-2.5-1.3-3.9s.5-2.7 1.3-3.8c.4-.5.3-1.1-.2-1.5-.5-.4-1.1-.3-1.5.2C9.5 7.4 8.8 9.1 8.8 11c0 0 0-1.9 0 0 0 0 0-1.9 0 0z"/><g><path d="M19.1 13.4c0 .5.2.9.5 1.1.3.2.7.4 1.2.4.7 0 1.5-.2 1.5-1.1 0-2-7.5-.4-7.5-5.2 0-3.1 3.3-4.1 5.8-4.1 2.7 0 5.8.6 6.1 3.9h-4.4c0-.4-.2-.7-.5-.9-.3-.2-.6-.3-1-.3-.8 0-1.4.3-1.4.9 0 1.7 7.8.6 7.8 5.2 0 2.6-2.1 4.3-6.6 4.3-2.8 0-5.9-.9-6.2-4.2h4.7zm9-8.8h4v1.9h-4V4.6zm0 12.7v-10h4v10h-4zm5-10h3.6v2c.6-1.6 1.5-2.3 3.1-2.3.2 0 .3 0 .5.1v4c-.3 0-.6-.1-.8-.1-1.6 0-2.4.8-2.4 2.9v3.4h-4v-10zm8-2.7h4v1.9h-4V4.6zm0 12.7v-10h4v10h-4zm15.8 0h-3.7v-1.5c-1 1.4-2 1.8-3.6 1.8-2.2 0-3.6-1.3-3.6-4.2V7.3h4v5.4c0 1.4.5 1.8 1.4 1.8 1.1 0 1.5-.9 1.5-2.4V7.3h4v10zm4.2-3.1c0 .4.2.7.4.9.2.2.6.3 1 .3.6 0 1.3-.2 1.3-.9 0-1.6-6.1-.3-6.1-4.2 0-2.6 2.6-3.3 4.7-3.3 2.2 0 4.7.5 5 3.1h-3.6c0-.3-.2-.6-.4-.7-.2-.2-.5-.2-.8-.2-.7 0-1.1.2-1.1.7 0 1.4 6.3.5 6.3 4.2 0 2.1-1.7 3.5-5.4 3.5-2.3 0-4.8-.7-5-3.4h3.7z"/><path d="M71.6 10.8l-4.1-5.9h5.4L74.5 8l1.6-3.1h5.3l-4.2 5.8 4.2 6.4H76l-1.7-3.5-1.8 3.5h-5.4l4.5-6.3zm10.2-5.9h4.5v1.8c.6-.9 1.7-2.2 3.5-2.2 2 0 3.3.9 3.9 2.2 1.1-1.5 2-2.2 3.8-2.2 3.1 0 4.6 2 4.6 5.4v7.3h-4.9v-6.3c0-1.8-.1-2.5-1.4-2.5-1.4 0-1.4 1.2-1.4 2.7v6.1h-4.9v-6.3c0-1.8-.1-2.5-1.4-2.5-1.3 0-1.4 1.2-1.4 2.7v6.1h-4.9V4.9z"/></g><g><path d="M101.8 2.7c-.7 0-1.3.6-1.3 1.3 0 .7.6 1.3 1.3 1.3.7 0 1.3-.6 1.3-1.3 0-.7-.6-1.3-1.3-1.3zm0 2.5c-.6 0-1.1-.5-1.1-1.1 0-.6.5-1.1 1.1-1.1.6 0 1.1.5 1.1 1.1 0 .6-.5 1.1-1.1 1.1z"/><path d="M102.4 3.7c0-.1 0-.2-.1-.3-.1-.1-.2-.1-.4-.1h-.6v1.3h.3v-.4h.3l.3.5h.3l-.4-.5c.2-.1.3-.2.3-.5zm-.5.3h-.3v-.5h.3c.2 0 .3.1.3.2 0 .2-.1.3-.3.3z"/></g></svg>